<svg xmlns="http://www.w3.org/2000/svg" viewBox="0 0 64 64">
  <rect width="64" height="64" rx="14" fill="#eaf8fe"/>
  <path fill="#2ab8f2" d="M10 24c0-4.4 3.6-8 8-8h13.5c2.5 0 4.8 1.2 6.3 3.2L41.5 24H54c4.4 0 8 3.6 8 8v17c0 4.4-3.6 8-8 8H18c-4.4 0-8-3.6-8-8z"/>
  <path fill="#66d4f8" d="M10 31c0-4.4 3.6-8 8-8h36c4.4 0 8 3.6 8 8v5H10z"/>
  <path fill="#0b2a3a" d="M23 42.5C23 35.6 28.6 30 35.5 30H46a2.5 2.5 0 0 1 0 5H35.5a7.5 7.5 0 0 0 0 15H43v-5h-6.5a2.5 2.5 0 0 1 0-5h9a2.5 2.5 0 0 1 2.5 2.5v10A2.5 2.5 0 0 1 45.5 55h-10C28.6 55 23 49.4 23 42.5Z"/>
</svg>
